<svg width="993" height="1461" viewBox="0 0 993 1461" fill="none" xmlns="http://www.w3.org/2000/svg">
<g opacity="0.15" filter="url(#filter0_f_244_3957)">
<path d="M126.634 653.667C-22.8035 525.09 79.9429 331.287 149.996 250.458C-706.068 475.9 -237.449 643.73 -264.152 898.373C-290.855 1153.02 215.476 1110.18 298.264 1004.57C381.053 898.955 313.432 814.389 126.634 653.667Z" fill="#41EAD4"/>
</g>
<g opacity="0.1" filter="url(#filter1_f_244_3957)">
<path d="M331.821 921.654C327.934 761.105 152.76 725.811 65.6591 728.232C649.648 305.121 513.504 687.08 687.765 801.703C862.025 916.326 573.656 1213.3 464.36 1210.96C355.065 1208.61 336.679 1122.34 331.821 921.654Z" fill="#41ADEA"/>
</g>
<defs>
<filter id="filter0_f_244_3957" x="-618.416" y="0.45752" width="1201.54" height="1337.18" filterUnits="userSpaceOnUse" color-interpolation-filters="sRGB">
<feFlood flood-opacity="0" result="BackgroundImageFix"/>
<feBlend mode="normal" in="SourceGraphic" in2="BackgroundImageFix" result="shape"/>
<feGaussianBlur stdDeviation="125" result="effect1_foregroundBlur_244_3957"/>
</filter>
<filter id="filter1_f_244_3957" x="-184.341" y="283.707" width="1176.78" height="1177.26" filterUnits="userSpaceOnUse" color-interpolation-filters="sRGB">
<feFlood flood-opacity="0" result="BackgroundImageFix"/>
<feBlend mode="normal" in="SourceGraphic" in2="BackgroundImageFix" result="shape"/>
<feGaussianBlur stdDeviation="125" result="effect1_foregroundBlur_244_3957"/>
</filter>
</defs>
</svg>
