<svg width="230" height="230" viewBox="0 0 230 230" fill="none" xmlns="http://www.w3.org/2000/svg">
<g id="Dots">
<g id="Dots_2">
<g id="Row 1">
<circle id="Ellipse 1" cx="5" cy="125" r="5" fill="#41EAD4"/>
<circle id="Ellipse 2" cx="25" cy="125" r="5" fill="#41EAD4"/>
<circle id="Ellipse 3" cx="45" cy="125" r="5" fill="#41EAD4"/>
<circle id="Ellipse 4" cx="65" cy="125" r="5" fill="#41EAD4"/>
<circle id="Ellipse 5" cx="85" cy="125" r="5" fill="#41EAD4"/>
<circle id="Ellipse 6" cx="105" cy="125" r="5" fill="#41EAD4"/>
</g>
<g id="Row 2">
<circle id="Ellipse 1_2" cx="5" cy="145" r="5" fill="#41EAD4"/>
<circle id="Ellipse 2_2" cx="25" cy="145" r="5" fill="#41EAD4"/>
<circle id="Ellipse 3_2" cx="45" cy="145" r="5" fill="#41EAD4"/>
<circle id="Ellipse 4_2" cx="65" cy="145" r="5" fill="#41EAD4"/>
<circle id="Ellipse 5_2" cx="85" cy="145" r="5" fill="#41EAD4"/>
<circle id="Ellipse 6_2" cx="105" cy="145" r="5" fill="#41EAD4"/>
</g>
<g id="Row 3">
<circle id="Ellipse 1_3" cx="5" cy="165" r="5" fill="#41EAD4"/>
<circle id="Ellipse 2_3" cx="25" cy="165" r="5" fill="#41EAD4"/>
<circle id="Ellipse 3_3" cx="45" cy="165" r="5" fill="#41EAD4"/>
<circle id="Ellipse 4_3" cx="65" cy="165" r="5" fill="#41EAD4"/>
<circle id="Ellipse 5_3" cx="85" cy="165" r="5" fill="#41EAD4"/>
<circle id="Ellipse 6_3" cx="105" cy="165" r="5" fill="#41EAD4"/>
</g>
<g id="Row 4">
<circle id="Ellipse 1_4" cx="5" cy="185" r="5" fill="#41EAD4"/>
<circle id="Ellipse 2_4" cx="25" cy="185" r="5" fill="#41EAD4"/>
<circle id="Ellipse 3_4" cx="45" cy="185" r="5" fill="#41EAD4"/>
<circle id="Ellipse 4_4" cx="65" cy="185" r="5" fill="#41EAD4"/>
<circle id="Ellipse 5_4" cx="85" cy="185" r="5" fill="#41EAD4"/>
<circle id="Ellipse 6_4" cx="105" cy="185" r="5" fill="#41EAD4"/>
</g>
<g id="Row 5">
<circle id="Ellipse 1_5" cx="5" cy="205" r="5" fill="#41EAD4"/>
<circle id="Ellipse 2_5" cx="25" cy="205" r="5" fill="#41EAD4"/>
<circle id="Ellipse 3_5" cx="45" cy="205" r="5" fill="#41EAD4"/>
<circle id="Ellipse 4_5" cx="65" cy="205" r="5" fill="#41EAD4"/>
<circle id="Ellipse 5_5" cx="85" cy="205" r="5" fill="#41EAD4"/>
<circle id="Ellipse 6_5" cx="105" cy="205" r="5" fill="#41EAD4"/>
</g>
<g id="Row 6">
<circle id="Ellipse 1_6" cx="5" cy="225" r="5" fill="#41EAD4"/>
<circle id="Ellipse 2_6" cx="25" cy="225" r="5" fill="#41EAD4"/>
<circle id="Ellipse 3_6" cx="45" cy="225" r="5" fill="#41EAD4"/>
<circle id="Ellipse 4_6" cx="65" cy="225" r="5" fill="#41EAD4"/>
<circle id="Ellipse 5_6" cx="85" cy="225" r="5" fill="#41EAD4"/>
<circle id="Ellipse 6_6" cx="105" cy="225" r="5" fill="#41EAD4"/>
</g>
</g>
<g id="Dots_3">
<g id="Row 1_2">
<circle id="Ellipse 1_7" cx="5" cy="5" r="5" fill="#41EAD4"/>
<circle id="Ellipse 2_7" cx="25" cy="5" r="5" fill="#41EAD4"/>
<circle id="Ellipse 3_7" cx="45" cy="5" r="5" fill="#41EAD4"/>
<circle id="Ellipse 4_7" cx="65" cy="5" r="5" fill="#41EAD4"/>
<circle id="Ellipse 5_7" cx="85" cy="5" r="5" fill="#41EAD4"/>
<circle id="Ellipse 6_7" cx="105" cy="5" r="5" fill="#41EAD4"/>
</g>
<g id="Row 2_2">
<circle id="Ellipse 1_8" cx="5" cy="25" r="5" fill="#41EAD4"/>
<circle id="Ellipse 2_8" cx="25" cy="25" r="5" fill="#41EAD4"/>
<circle id="Ellipse 3_8" cx="45" cy="25" r="5" fill="#41EAD4"/>
<circle id="Ellipse 4_8" cx="65" cy="25" r="5" fill="#41EAD4"/>
<circle id="Ellipse 5_8" cx="85" cy="25" r="5" fill="#41EAD4"/>
<circle id="Ellipse 6_8" cx="105" cy="25" r="5" fill="#41EAD4"/>
</g>
<g id="Row 3_2">
<circle id="Ellipse 1_9" cx="5" cy="45" r="5" fill="#41EAD4"/>
<circle id="Ellipse 2_9" cx="25" cy="45" r="5" fill="#41EAD4"/>
<circle id="Ellipse 3_9" cx="45" cy="45" r="5" fill="#41EAD4"/>
<circle id="Ellipse 4_9" cx="65" cy="45" r="5" fill="#41EAD4"/>
<circle id="Ellipse 5_9" cx="85" cy="45" r="5" fill="#41EAD4"/>
<circle id="Ellipse 6_9" cx="105" cy="45" r="5" fill="#41EAD4"/>
</g>
<g id="Row 4_2">
<circle id="Ellipse 1_10" cx="5" cy="65" r="5" fill="#41EAD4"/>
<circle id="Ellipse 2_10" cx="25" cy="65" r="5" fill="#41EAD4"/>
<circle id="Ellipse 3_10" cx="45" cy="65" r="5" fill="#41EAD4"/>
<circle id="Ellipse 4_10" cx="65" cy="65" r="5" fill="#41EAD4"/>
<circle id="Ellipse 5_10" cx="85" cy="65" r="5" fill="#41EAD4"/>
<circle id="Ellipse 6_10" cx="105" cy="65" r="5" fill="#41EAD4"/>
</g>
<g id="Row 5_2">
<circle id="Ellipse 1_11" cx="5" cy="85" r="5" fill="#41EAD4"/>
<circle id="Ellipse 2_11" cx="25" cy="85" r="5" fill="#41EAD4"/>
<circle id="Ellipse 3_11" cx="45" cy="85" r="5" fill="#41EAD4"/>
<circle id="Ellipse 4_11" cx="65" cy="85" r="5" fill="#41EAD4"/>
<circle id="Ellipse 5_11" cx="85" cy="85" r="5" fill="#41EAD4"/>
<circle id="Ellipse 6_11" cx="105" cy="85" r="5" fill="#41EAD4"/>
</g>
<g id="Row 6_2">
<circle id="Ellipse 1_12" cx="5" cy="105" r="5" fill="#41EAD4"/>
<circle id="Ellipse 2_12" cx="25" cy="105" r="5" fill="#41EAD4"/>
<circle id="Ellipse 3_12" cx="45" cy="105" r="5" fill="#41EAD4"/>
<circle id="Ellipse 4_12" cx="65" cy="105" r="5" fill="#41EAD4"/>
<circle id="Ellipse 5_12" cx="85" cy="105" r="5" fill="#41EAD4"/>
<circle id="Ellipse 6_12" cx="105" cy="105" r="5" fill="#41EAD4"/>
</g>
</g>
<g id="Dots_4">
<g id="Row 1_3">
<circle id="Ellipse 1_13" cx="125" cy="125" r="5" fill="#41EAD4"/>
<circle id="Ellipse 2_13" cx="145" cy="125" r="5" fill="#41EAD4"/>
<circle id="Ellipse 3_13" cx="165" cy="125" r="5" fill="#41EAD4"/>
<circle id="Ellipse 4_13" cx="185" cy="125" r="5" fill="#41EAD4"/>
<circle id="Ellipse 5_13" cx="205" cy="125" r="5" fill="#41EAD4"/>
<circle id="Ellipse 6_13" cx="225" cy="125" r="5" fill="#41EAD4"/>
</g>
<g id="Row 2_3">
<circle id="Ellipse 1_14" cx="125" cy="145" r="5" fill="#41EAD4"/>
<circle id="Ellipse 2_14" cx="145" cy="145" r="5" fill="#41EAD4"/>
<circle id="Ellipse 3_14" cx="165" cy="145" r="5" fill="#41EAD4"/>
<circle id="Ellipse 4_14" cx="185" cy="145" r="5" fill="#41EAD4"/>
<circle id="Ellipse 5_14" cx="205" cy="145" r="5" fill="#41EAD4"/>
<circle id="Ellipse 6_14" cx="225" cy="145" r="5" fill="#41EAD4"/>
</g>
<g id="Row 3_3">
<circle id="Ellipse 1_15" cx="125" cy="165" r="5" fill="#41EAD4"/>
<circle id="Ellipse 2_15" cx="145" cy="165" r="5" fill="#41EAD4"/>
<circle id="Ellipse 3_15" cx="165" cy="165" r="5" fill="#41EAD4"/>
<circle id="Ellipse 4_15" cx="185" cy="165" r="5" fill="#41EAD4"/>
<circle id="Ellipse 5_15" cx="205" cy="165" r="5" fill="#41EAD4"/>
<circle id="Ellipse 6_15" cx="225" cy="165" r="5" fill="#41EAD4"/>
</g>
<g id="Row 4_3">
<circle id="Ellipse 1_16" cx="125" cy="185" r="5" fill="#41EAD4"/>
<circle id="Ellipse 2_16" cx="145" cy="185" r="5" fill="#41EAD4"/>
<circle id="Ellipse 3_16" cx="165" cy="185" r="5" fill="#41EAD4"/>
<circle id="Ellipse 4_16" cx="185" cy="185" r="5" fill="#41EAD4"/>
<circle id="Ellipse 5_16" cx="205" cy="185" r="5" fill="#41EAD4"/>
<circle id="Ellipse 6_16" cx="225" cy="185" r="5" fill="#41EAD4"/>
</g>
<g id="Row 5_3">
<circle id="Ellipse 1_17" cx="125" cy="205" r="5" fill="#41EAD4"/>
<circle id="Ellipse 2_17" cx="145" cy="205" r="5" fill="#41EAD4"/>
<circle id="Ellipse 3_17" cx="165" cy="205" r="5" fill="#41EAD4"/>
<circle id="Ellipse 4_17" cx="185" cy="205" r="5" fill="#41EAD4"/>
<circle id="Ellipse 5_17" cx="205" cy="205" r="5" fill="#41EAD4"/>
<circle id="Ellipse 6_17" cx="225" cy="205" r="5" fill="#41EAD4"/>
</g>
<g id="Row 6_3">
<circle id="Ellipse 1_18" cx="125" cy="225" r="5" fill="#41EAD4"/>
<circle id="Ellipse 2_18" cx="145" cy="225" r="5" fill="#41EAD4"/>
<circle id="Ellipse 3_18" cx="165" cy="225" r="5" fill="#41EAD4"/>
<circle id="Ellipse 4_18" cx="185" cy="225" r="5" fill="#41EAD4"/>
<circle id="Ellipse 5_18" cx="205" cy="225" r="5" fill="#41EAD4"/>
<circle id="Ellipse 6_18" cx="225" cy="225" r="5" fill="#41EAD4"/>
</g>
</g>
</g>
</svg>
