<svg width="1920" height="6030" viewBox="0 0 1920 6030" fill="none" xmlns="http://www.w3.org/2000/svg">
<g opacity="0.5" filter="url(#filter0_f_57_1032)">
<path d="M123.526 1398.64C44.3362 1330.5 98.7833 1227.8 135.906 1184.97C-317.737 1304.44 -69.408 1393.37 -83.5585 1528.31C-97.709 1663.25 170.604 1640.55 214.476 1584.59C258.347 1528.62 222.513 1483.81 123.526 1398.64Z" fill="#41EAD4"/>
</g>
<g opacity="0.15" filter="url(#filter1_f_57_1032)">
<path d="M126.634 3309.67C-22.8035 3181.09 79.9429 2987.29 149.996 2906.46C-706.068 3131.9 -237.449 3299.73 -264.152 3554.37C-290.855 3809.02 215.476 3766.19 298.264 3660.57C381.053 3554.96 313.432 3470.39 126.634 3309.67Z" fill="#41EAD4"/>
</g>
<g opacity="0.1" filter="url(#filter2_f_57_1032)">
<path d="M331.821 3577.65C327.934 3417.11 152.76 3381.81 65.659 3384.23C649.648 2961.12 513.504 3343.08 687.765 3457.7C862.025 3572.33 573.656 3869.3 464.36 3866.96C355.065 3864.61 336.679 3778.34 331.821 3577.65Z" fill="#41ADEA"/>
</g>
<g opacity="0.5" filter="url(#filter3_f_57_1032)">
<path d="M1791.83 1922.64C1871.02 1854.5 1816.57 1751.8 1779.45 1708.97C2233.09 1828.44 1984.76 1917.37 1998.91 2052.31C2013.06 2187.25 1744.75 2164.55 1700.88 2108.59C1657.01 2052.62 1692.84 2007.81 1791.83 1922.64Z" fill="#41EAD4"/>
</g>
<g opacity="0.5" filter="url(#filter4_f_57_1032)">
<path d="M1682.25 1785.49C1722.41 1750.94 1694.8 1698.86 1675.97 1677.14C1906.02 1737.72 1780.09 1782.82 1787.26 1851.25C1794.44 1919.68 1658.38 1908.17 1636.13 1879.79C1613.88 1851.41 1632.05 1828.68 1682.25 1785.49Z" fill="#7741EA"/>
</g>
<g opacity="0.5" filter="url(#filter5_f_57_1032)">
<path d="M167.249 1592.49C207.407 1557.94 179.797 1505.86 160.972 1484.14C391.017 1544.72 265.088 1589.82 272.263 1658.25C279.439 1726.68 143.376 1715.17 121.128 1686.79C98.881 1658.41 117.052 1635.68 167.249 1592.49Z" fill="#7741EA"/>
</g>
<g opacity="0.1" filter="url(#filter6_f_57_1032)">
<path fill-rule="evenodd" clip-rule="evenodd" d="M1585.14 1416.36C1756.69 1394.62 1928.04 1480.34 2036.4 1615.1C2145.26 1750.5 2186.27 1934.47 2135.22 2100.54C2087.91 2254.46 1941.64 2344.66 1793.05 2406.72C1656.39 2463.79 1507.19 2477.81 1370.96 2419.74C1226.02 2357.96 1085.87 2250.2 1060.89 2094.64C1037.06 1946.21 1165.69 1832.73 1257.62 1713.79C1352.5 1591.03 1431.22 1435.87 1585.14 1416.36Z" fill="#7741EA"/>
</g>
<g opacity="0.1" filter="url(#filter7_f_57_1032)">
<path fill-rule="evenodd" clip-rule="evenodd" d="M2009.14 2581.36C2180.69 2559.62 2352.04 2645.34 2460.4 2780.1C2569.26 2915.5 2610.27 3099.47 2559.22 3265.54C2511.91 3419.46 2365.64 3509.66 2217.05 3571.72C2080.39 3628.79 1931.19 3642.81 1794.96 3584.74C1650.02 3522.96 1509.87 3415.2 1484.89 3259.64C1461.06 3111.21 1589.69 2997.73 1681.62 2878.79C1776.5 2756.03 1855.22 2600.87 2009.14 2581.36Z" fill="#7741EA"/>
</g>
<g opacity="0.07" filter="url(#filter8_f_57_1032)">
<path fill-rule="evenodd" clip-rule="evenodd" d="M501.627 1263.34C723.13 1235.27 944.374 1345.94 1084.28 1519.95C1224.84 1694.78 1277.8 1932.32 1211.88 2146.74C1150.79 2345.48 961.928 2461.95 770.075 2542.08C593.626 2615.77 400.988 2633.87 225.081 2558.89C37.944 2479.13 -143.021 2339.98 -175.267 2139.12C-206.035 1947.47 -39.9548 1800.95 78.7462 1647.37C201.256 1488.87 302.888 1288.52 501.627 1263.34Z" fill="#41EAD4"/>
</g>
<g opacity="0.1" filter="url(#filter9_f_57_1032)">
<path fill-rule="evenodd" clip-rule="evenodd" d="M1971.37 2782.34C1749.87 2754.27 1528.63 2864.94 1388.72 3038.95C1248.16 3213.78 1195.2 3451.32 1261.12 3665.74C1322.21 3864.48 1511.07 3980.95 1702.93 4061.08C1879.37 4134.77 2072.01 4152.87 2247.92 4077.89C2435.06 3998.12 2616.02 3858.98 2648.27 3658.12C2679.03 3466.47 2512.95 3319.95 2394.25 3166.37C2271.74 3007.87 2170.11 2807.52 1971.37 2782.34Z" fill="#41EAD4"/>
</g>
<g opacity="0.11" filter="url(#filter10_f_57_1032)">
<path fill-rule="evenodd" clip-rule="evenodd" d="M334.228 1262.27C501.253 1241.12 668.083 1324.53 773.579 1455.68C879.566 1587.45 919.5 1766.49 869.799 1928.1C823.731 2077.89 681.319 2165.67 536.652 2226.07C403.601 2281.61 258.341 2295.25 125.698 2238.74C-15.4129 2178.62 -151.87 2073.75 -176.185 1922.36C-199.386 1777.91 -74.1526 1667.47 15.3541 1551.72C107.733 1432.25 184.369 1281.25 334.228 1262.27Z" fill="#BE41EA"/>
</g>
<defs>
<filter id="filter0_f_57_1032" x="-388.81" y="934.969" width="871.757" height="943.634" filterUnits="userSpaceOnUse" color-interpolation-filters="sRGB">
<feFlood flood-opacity="0" result="BackgroundImageFix"/>
<feBlend mode="normal" in="SourceGraphic" in2="BackgroundImageFix" result="shape"/>
<feGaussianBlur stdDeviation="125" result="effect1_foregroundBlur_57_1032"/>
</filter>
<filter id="filter1_f_57_1032" x="-618.416" y="2656.46" width="1201.54" height="1337.18" filterUnits="userSpaceOnUse" color-interpolation-filters="sRGB">
<feFlood flood-opacity="0" result="BackgroundImageFix"/>
<feBlend mode="normal" in="SourceGraphic" in2="BackgroundImageFix" result="shape"/>
<feGaussianBlur stdDeviation="125" result="effect1_foregroundBlur_57_1032"/>
</filter>
<filter id="filter2_f_57_1032" x="-184.341" y="2939.71" width="1176.78" height="1177.26" filterUnits="userSpaceOnUse" color-interpolation-filters="sRGB">
<feFlood flood-opacity="0" result="BackgroundImageFix"/>
<feBlend mode="normal" in="SourceGraphic" in2="BackgroundImageFix" result="shape"/>
<feGaussianBlur stdDeviation="125" result="effect1_foregroundBlur_57_1032"/>
</filter>
<filter id="filter3_f_57_1032" x="1432.41" y="1458.97" width="871.757" height="943.634" filterUnits="userSpaceOnUse" color-interpolation-filters="sRGB">
<feFlood flood-opacity="0" result="BackgroundImageFix"/>
<feBlend mode="normal" in="SourceGraphic" in2="BackgroundImageFix" result="shape"/>
<feGaussianBlur stdDeviation="125" result="effect1_foregroundBlur_57_1032"/>
</filter>
<filter id="filter4_f_57_1032" x="1376.76" y="1427.14" width="688.52" height="724.97" filterUnits="userSpaceOnUse" color-interpolation-filters="sRGB">
<feFlood flood-opacity="0" result="BackgroundImageFix"/>
<feBlend mode="normal" in="SourceGraphic" in2="BackgroundImageFix" result="shape"/>
<feGaussianBlur stdDeviation="125" result="effect1_foregroundBlur_57_1032"/>
</filter>
<filter id="filter5_f_57_1032" x="-138.239" y="1234.14" width="688.52" height="724.97" filterUnits="userSpaceOnUse" color-interpolation-filters="sRGB">
<feFlood flood-opacity="0" result="BackgroundImageFix"/>
<feBlend mode="normal" in="SourceGraphic" in2="BackgroundImageFix" result="shape"/>
<feGaussianBlur stdDeviation="125" result="effect1_foregroundBlur_57_1032"/>
</filter>
<filter id="filter6_f_57_1032" x="808" y="1163" width="1599" height="1544" filterUnits="userSpaceOnUse" color-interpolation-filters="sRGB">
<feFlood flood-opacity="0" result="BackgroundImageFix"/>
<feBlend mode="normal" in="SourceGraphic" in2="BackgroundImageFix" result="shape"/>
<feGaussianBlur stdDeviation="125" result="effect1_foregroundBlur_57_1032"/>
</filter>
<filter id="filter7_f_57_1032" x="1232" y="2328" width="1599" height="1544" filterUnits="userSpaceOnUse" color-interpolation-filters="sRGB">
<feFlood flood-opacity="0" result="BackgroundImageFix"/>
<feBlend mode="normal" in="SourceGraphic" in2="BackgroundImageFix" result="shape"/>
<feGaussianBlur stdDeviation="125" result="effect1_foregroundBlur_57_1032"/>
</filter>
<filter id="filter8_f_57_1032" x="-429" y="1009" width="1919" height="1848" filterUnits="userSpaceOnUse" color-interpolation-filters="sRGB">
<feFlood flood-opacity="0" result="BackgroundImageFix"/>
<feBlend mode="normal" in="SourceGraphic" in2="BackgroundImageFix" result="shape"/>
<feGaussianBlur stdDeviation="125" result="effect1_foregroundBlur_57_1032"/>
</filter>
<filter id="filter9_f_57_1032" x="983" y="2528" width="1919" height="1848" filterUnits="userSpaceOnUse" color-interpolation-filters="sRGB">
<feFlood flood-opacity="0" result="BackgroundImageFix"/>
<feBlend mode="normal" in="SourceGraphic" in2="BackgroundImageFix" result="shape"/>
<feGaussianBlur stdDeviation="125" result="effect1_foregroundBlur_57_1032"/>
</filter>
<filter id="filter10_f_57_1032" x="-429" y="1009" width="1570" height="1516" filterUnits="userSpaceOnUse" color-interpolation-filters="sRGB">
<feFlood flood-opacity="0" result="BackgroundImageFix"/>
<feBlend mode="normal" in="SourceGraphic" in2="BackgroundImageFix" result="shape"/>
<feGaussianBlur stdDeviation="125" result="effect1_foregroundBlur_57_1032"/>
</filter>
</defs>
</svg>
